<svg xmlns="http://www.w3.org/2000/svg"  viewBox="0 0 64 64" width="128px" height="128px"><radialGradient id="LPbeEs_vsJZWZDoATU0Dba" cx="31.811" cy="31.993" r="87.106" gradientTransform="matrix(1 0 0 -1 0 63.89)" gradientUnits="userSpaceOnUse"><stop offset="0" stop-color="#8deeff"/><stop offset=".28" stop-color="#a0f0ff"/><stop offset=".592" stop-color="#c8f7ff"/><stop offset="1" stop-color="#d6f9ff"/></radialGradient><path fill="url(#LPbeEs_vsJZWZDoATU0Dba)" d="M60,44h-9.5c-1.466,0-2.637-1.262-2.487-2.759C48.144,39.94,49.336,39,50.644,39h8.857	c2.631,0,4.735-2.258,4.479-4.941C63.756,31.719,61.657,30,59.306,30h-7.194c-1.451,0-2.781-0.981-3.055-2.406	C48.689,25.677,50.149,24,52,24h6.5c2.631,0,4.733-2.256,4.479-4.94C62.758,16.72,60.658,15,58.306,15h-2.608	c-1.732,0-3.346-1.166-3.643-2.873C51.671,9.917,53.362,8,55.5,8h0.385c1.451,0,2.783-0.981,3.057-2.406C59.311,3.677,57.851,2,56,2	H32h-5H10.215C7.716,2,5.441,3.738,5.061,6.208c-0.471,3.07,1.854,5.719,4.817,5.789c1.031,0.025,1.98,0.723,2.106,1.747	C12.135,14.963,11.188,16,10,16H5.697c-1.733,0-3.348,1.167-3.643,2.874C1.672,21.084,3.363,23,5.5,23h6.857	c1.308,0,2.5,0.942,2.63,2.243C15.137,26.74,13.966,28,12.5,28H5.217c-2.612,0-4.945,1.909-5.193,4.509C-0.261,35.491,2.077,38,5,38	h6.357c1.308,0,2.499,0.94,2.63,2.241C14.138,41.738,12.967,43,11.5,43H2.643c-1.308,0-2.5,0.942-2.63,2.243	C-0.136,46.74,1.035,48,2.5,48h13.052C17.456,48,19,49.543,19,51.447v0.105C19,53.456,17.457,55,15.552,55H6c-1.657,0-3,1.343-3,3	l0,0c0,1.657,1.343,3,3,3h21h3h30.888c1.451,0,2.781-0.981,3.055-2.406C64.311,56.677,62.851,55,61,55h-2.5	c-0.828,0-1.5-0.672-1.5-1.5s0.672-1.5,1.5-1.5h1.327c2.09,0,3.956-1.528,4.154-3.608C64.209,46.007,62.339,44,60,44z"/><linearGradient id="LPbeEs_vsJZWZDoATU0Dbb" x1="32" x2="32" y1="48.724" y2="11.89" gradientTransform="matrix(1 0 0 -1 0 63.89)" gradientUnits="userSpaceOnUse"><stop offset="0" stop-color="#fff"/><stop offset=".317" stop-color="#f0f0f0"/><stop offset=".925" stop-color="#c8c8c8"/><stop offset="1" stop-color="#c3c3c3"/></linearGradient><path fill="url(#LPbeEs_vsJZWZDoATU0Dbb)" d="M53,26.255v-6.084c0-3.479-3.464-5.894-6.729-4.692l-5.888,2.169 c-0.665,0.245-1.364,0.37-2.073,0.37c-2.719-0.001-9.888,0.001-12.609,0.004c-0.71,0.001-1.41-0.125-2.076-0.37l-5.897-2.173 C14.464,14.276,11,16.692,11,20.171v5.718c0,1.718-0.331,3.412-0.875,5.041C9.574,32.578,9.19,34.287,9,36c0,8.837,7.163,16,16,16 h14c8.837,0,16-7.163,16-16c-0.333-1.832-0.756-3.549-1.268-5.143C53.253,29.367,53,27.82,53,26.255z"/><ellipse cx="20.833" cy="38.643" fill="#595959" rx="2.611" ry="3.357"/><ellipse cx="42.833" cy="38.643" fill="#595959" rx="2.611" ry="3.357"/><linearGradient id="LPbeEs_vsJZWZDoATU0Dbc" x1="32" x2="32" y1="18.89" y2="22.89" gradientTransform="matrix(1 0 0 -1 0 63.89)" gradientUnits="userSpaceOnUse"><stop offset="0" stop-color="#fdb265"/><stop offset=".612" stop-color="#ffd15d"/><stop offset="1" stop-color="#fde058"/></linearGradient><ellipse cx="32" cy="43" fill="url(#LPbeEs_vsJZWZDoATU0Dbc)" rx="3" ry="2"/><path fill="#595959" d="M12.5,39c0.829,0,1.5-0.671,1.5-1.5S13.329,36,12.5,36h-7C4.671,36,4,36.671,4,37.5S4.671,39,5.5,39	H12.5z"/><path fill="#595959" d="M15.829,46.158l-6,3c-0.741,0.371-1.041,1.271-0.671,2.013C9.421,51.696,9.951,52,10.501,52	c0.226,0,0.455-0.051,0.67-0.159l6-3c0.741-0.371,1.041-1.271,0.671-2.013C17.471,46.088,16.57,45.789,15.829,46.158z"/><path fill="#595959" d="M14.942,42.088c-0.228-0.797-1.06-1.257-1.854-1.03l-7,2c-0.796,0.228-1.258,1.058-1.03,1.854	C5.246,45.571,5.847,46,6.499,46c0.137,0,0.275-0.019,0.413-0.058l7-2C14.708,43.715,15.17,42.884,14.942,42.088z"/><path fill="#595959" d="M59.5,36h-7c-0.829,0-1.5,0.671-1.5,1.5s0.671,1.5,1.5,1.5h7c0.829,0,1.5-0.671,1.5-1.5	S60.329,36,59.5,36z"/><path fill="#595959" d="M55.171,49.158l-6-3c-0.74-0.369-1.642-0.07-2.013,0.671c-0.37,0.741-0.07,1.642,0.671,2.013l6,3	C54.044,51.949,54.273,52,54.499,52c0.55,0,1.08-0.304,1.343-0.83C56.212,50.43,55.912,49.529,55.171,49.158z"/><path fill="#595959" d="M58.912,43.058l-7-2c-0.796-0.226-1.627,0.233-1.854,1.03c-0.228,0.796,0.234,1.627,1.03,1.854l7,2	C58.226,45.981,58.364,46,58.501,46c0.652,0,1.253-0.43,1.441-1.088C60.17,44.116,59.708,43.285,58.912,43.058z"/><linearGradient id="LPbeEs_vsJZWZDoATU0Dbd" x1="37.428" x2="37.428" y1="21.151" y2="48.208" gradientTransform="matrix(1 0 0 -1 0 63.89)" gradientUnits="userSpaceOnUse"><stop offset="0" stop-color="#ff7d5c"/><stop offset=".214" stop-color="#ff7e72"/><stop offset=".524" stop-color="#fc7e8c"/><stop offset=".793" stop-color="#fa7f9c"/><stop offset=".989" stop-color="#fa7fa2"/><stop offset="1" stop-color="#fa7fa2"/></linearGradient><path fill="url(#LPbeEs_vsJZWZDoATU0Dbd)" d="M41,25l-3.997,1.599c-0.654,0.262-1.37,0.327-2.061,0.189l0,0	c-2.109-0.422-3.392-2.574-2.759-4.63l1.853-6.021c0.548-1.782,2.356-2.859,4.184-2.493l0.043,0.009	c1.097,0.219,2.032,0.932,2.534,1.932l2.038,4.059L41,25z"/><linearGradient id="LPbeEs_vsJZWZDoATU0Dbe" x1="-643.793" x2="-643.793" y1="347.557" y2="374.604" gradientTransform="scale(-1) rotate(48.726 90.557 825.73)" gradientUnits="userSpaceOnUse"><stop offset="0" stop-color="#ff7d5c"/><stop offset=".214" stop-color="#ff7e72"/><stop offset=".524" stop-color="#fc7e8c"/><stop offset=".793" stop-color="#fa7f9c"/><stop offset=".989" stop-color="#fa7fa2"/><stop offset="1" stop-color="#fa7fa2"/></linearGradient><path fill="url(#LPbeEs_vsJZWZDoATU0Dbe)" d="M45.465,27.23l1.435,4.059c0.235,0.664,0.658,1.246,1.218,1.674l0,0	c1.708,1.307,4.172,0.851,5.3-0.98l3.288-5.34c0.986-1.601,0.6-3.688-0.894-4.831l0,0c-0.896-0.686-2.059-0.92-3.151-0.635	l-4.38,1.142L45.465,27.23z"/><linearGradient id="LPbeEs_vsJZWZDoATU0Dbf" x1="44" x2="44" y1="35.093" y2="44.76" gradientTransform="matrix(1 0 0 -1 0 63.89)" gradientUnits="userSpaceOnUse"><stop offset="0" stop-color="#ff5841"/><stop offset="1" stop-color="#fc5475"/></linearGradient><circle cx="44" cy="24" r="5" fill="url(#LPbeEs_vsJZWZDoATU0Dbf)"/><g><linearGradient id="LPbeEs_vsJZWZDoATU0Dbg" x1="28" x2="28" y1="36.709" y2="46.302" gradientTransform="matrix(1 0 0 -1 0 63.89)" gradientUnits="userSpaceOnUse"><stop offset="0" stop-color="#d8d8d8"/><stop offset="1" stop-color="#e6e6e6"/></linearGradient><circle cx="28" cy="22" r="2" fill="url(#LPbeEs_vsJZWZDoATU0Dbg)"/><g><linearGradient id="LPbeEs_vsJZWZDoATU0Dbh" x1="16.768" x2="16.768" y1="20.554" y2="51.73" gradientTransform="matrix(1 0 0 -1 0 63.89)" gradientUnits="userSpaceOnUse"><stop offset="0" stop-color="#d8d8d8"/><stop offset="1" stop-color="#e6e6e6"/></linearGradient><path fill="url(#LPbeEs_vsJZWZDoATU0Dbh)" d="M10.125,30.93C9.897,31.61,9.706,32.303,9.537,33H17c1.657,0,3.001-1.344,3-3.001 C19.999,28.342,18.656,27,17,27h-2.5c-0.828,0-1.5-0.672-1.5-1.5s0.672-1.5,1.5-1.5H22c1.105,0,2-0.895,2-2s-0.895-2-2-2H11.011 C11.009,20.057,11,20.113,11,20.171v4.718v1C11,27.607,10.669,29.3,10.125,30.93z"/></g></g></svg>